<?xml version="1.0" encoding="UTF-8" standalone="no"?>
<svg xmlns:xlink="http://www.w3.org/1999/xlink" height="175.05px" width="196.2px" xmlns="http://www.w3.org/2000/svg">
  <g transform="matrix(9.0, 0.0, 0.0, 9.0, 99.0, 89.1)">
    <use data-characterId="1501" height="19.45" transform="matrix(1.0, 0.0, 0.0, 1.0, -11.0, -9.9)" width="21.8" xlink:href="#shape0"/>
  </g>
  <defs>
    <g id="shape0" transform="matrix(1.0, 0.0, 0.0, 1.0, 11.0, 9.9)">
      <path d="M1.85 -9.85 L2.2 -9.85 Q2.35 -9.8 2.65 -9.65 L3.5 -8.8 3.95 -8.1 4.25 -7.65 4.75 -6.8 5.0 -6.35 5.05 -6.2 5.1 -6.15 6.15 -3.85 8.35 0.5 9.8 4.0 10.3 4.45 10.7 5.05 10.75 5.35 10.8 5.75 10.8 5.85 10.8 5.95 10.65 6.55 10.5 6.9 10.5 6.95 10.4 7.0 9.05 8.2 8.8 8.35 7.45 9.05 4.05 9.5 Q2.05 9.15 -0.05 8.35 L-4.1 8.1 -7.6 8.85 -9.35 9.15 -9.95 8.95 Q-10.15 8.95 -10.35 8.75 L-10.45 8.65 -10.8 8.05 -10.9 7.8 Q-11.1 7.25 -10.95 6.5 L-10.1 5.0 -9.0 3.9 Q-8.35 3.3 -8.05 2.3 L-7.75 1.7 -5.4 -2.7 -4.5 -4.1 -3.5 -5.7 -3.2 -6.15 -2.65 -7.05 -1.9 -8.1 -0.85 -9.2 Q0.0 -9.9 0.95 -9.9 L1.85 -9.85 M3.55 -4.1 L3.35 -4.45 2.8 -6.2 2.05 -7.6 1.8 -7.7 0.9 -7.5 0.3 -7.55 0.1 -7.6 0.0 -7.65 -0.35 -7.5 -0.5 -7.4 -0.8 -7.1 -2.1 -4.65 -2.55 -3.8 -4.4 -0.4 -5.1 0.75 -5.3 1.2 -6.05 2.8 -6.85 4.4 -6.95 4.6 -7.15 4.75 -7.7 5.25 -8.1 5.55 Q-8.7 5.95 -8.7 6.65 L-8.4 7.1 -7.95 7.2 -7.8 7.2 -7.7 7.2 -7.5 7.15 -4.65 6.45 -3.9 6.35 -3.65 6.35 Q-1.6 6.2 0.05 6.85 0.5 6.65 0.5 5.95 L0.35 4.5 0.4 3.25 0.4 1.75 0.5 0.45 0.5 0.35 0.5 0.2 0.5 0.1 0.5 0.0 0.55 -0.1 Q0.7 -0.75 1.55 -0.95 L1.75 -0.8 1.8 -0.75 1.8 -0.65 1.95 0.0 2.05 0.7 2.05 0.8 2.05 1.1 2.05 4.1 2.1 5.45 2.2 6.7 2.2 6.9 2.35 7.1 2.8 7.5 3.5 7.6 Q6.4 7.85 8.5 5.9 L8.7 5.25 8.45 4.5 7.6 3.7 7.45 3.5 6.4 1.35 6.35 1.3 6.3 1.15 6.3 1.1 6.25 1.05 5.65 -0.25 3.55 -4.1" fill="#000000" fill-rule="evenodd" stroke="none"/>
      <path d="M0.3 -7.55 L0.9 -7.5 1.8 -7.7 2.05 -7.6 2.8 -6.2 3.35 -4.45 3.55 -4.1 3.5 -4.1 3.5 -3.9 3.55 -3.65 3.6 -3.05 3.7 -2.0 3.8 -1.75 3.9 -1.35 3.95 -1.25 4.15 -0.85 4.15 -0.8 4.45 -0.2 4.55 -0.05 4.75 0.8 4.45 1.45 4.0 1.55 3.45 1.3 3.4 1.2 3.3 1.15 3.3 1.05 3.0 0.4 2.8 -0.55 2.5 -1.15 2.4 -1.35 2.3 -1.2 2.25 -1.2 1.9 -0.75 1.85 -0.75 1.85 -0.7 1.8 -0.65 1.8 -0.75 1.75 -0.8 1.55 -0.95 Q0.7 -0.75 0.55 -0.1 L0.5 0.0 0.25 0.3 Q-0.7 2.25 -1.0 4.35 L-1.4 4.6 -1.45 4.6 -1.7 4.75 -4.65 5.0 -5.1 4.8 Q-5.15 3.9 -4.5 3.0 L-2.65 -0.9 -1.6 -3.0 -1.15 -4.1 -0.5 -5.6 0.0 -6.85 0.05 -7.0 0.3 -7.55 M6.25 1.05 L6.3 1.1 6.25 1.1 6.25 1.05 M6.3 1.15 L6.35 1.3 6.4 1.35 6.35 1.35 6.35 1.3 6.3 1.25 6.3 1.15" fill="#ffffff" fill-rule="evenodd" stroke="none"/>
      <path d="M0.3 -7.55 L0.05 -7.0 0.0 -6.85 -0.5 -5.6 -1.15 -4.1 -1.6 -3.0 -2.65 -0.9 -4.5 3.0 Q-5.15 3.9 -5.1 4.8 L-4.65 5.0 -1.7 4.75 -1.45 4.6 -1.4 4.6 -1.0 4.35 Q-0.7 2.25 0.25 0.3 L0.5 0.0 0.5 0.1 0.5 0.2 0.5 0.35 0.5 0.45 0.4 1.75 0.4 3.25 0.35 4.5 0.5 5.95 Q0.5 6.65 0.05 6.85 -1.6 6.2 -3.65 6.35 L-3.9 6.35 -4.65 6.45 -7.5 7.15 -7.7 7.2 -7.8 7.2 -7.95 7.2 -8.4 7.1 -8.7 6.65 Q-8.7 5.95 -8.1 5.55 L-7.7 5.25 -7.15 4.75 -6.95 4.6 -6.85 4.4 -6.05 2.8 -5.3 1.2 -5.1 0.75 -4.4 -0.4 -2.55 -3.8 -2.1 -4.65 -0.8 -7.1 -0.5 -7.4 -0.35 -7.5 0.0 -7.65 0.1 -7.6 0.3 -7.55 M1.8 -0.65 L1.85 -0.7 1.85 -0.75 1.9 -0.75 2.25 -1.2 2.3 -1.2 2.4 -1.35 2.5 -1.15 2.8 -0.55 3.0 0.4 3.3 1.05 3.3 1.15 3.4 1.2 3.45 1.3 4.0 1.55 4.45 1.45 4.75 0.8 4.55 -0.05 4.45 -0.2 4.15 -0.8 4.15 -0.85 3.95 -1.25 3.9 -1.35 3.8 -1.75 3.7 -2.0 3.6 -3.05 3.55 -3.65 3.5 -3.9 3.5 -4.1 3.55 -4.1 5.65 -0.25 6.25 1.05 6.25 1.1 6.3 1.1 6.3 1.15 6.3 1.25 6.35 1.3 6.35 1.35 6.4 1.35 7.45 3.5 7.6 3.7 8.45 4.5 8.7 5.25 8.5 5.9 Q6.4 7.85 3.5 7.6 L2.8 7.5 2.35 7.1 2.2 6.9 2.2 6.7 2.1 5.45 2.05 4.1 2.05 1.1 2.05 0.8 2.05 0.7 1.95 0.0 1.8 -0.65" fill="#cccccc" fill-rule="evenodd" stroke="none"/>
    </g>
  </defs>
</svg>
