<?xml version="1.0" encoding="UTF-8" standalone="no"?>
<svg xmlns:xlink="http://www.w3.org/1999/xlink" height="2223.0px" width="2902.5px" xmlns="http://www.w3.org/2000/svg">
  <g transform="matrix(90.0, 0.0, 0.0, 90.0, 1129.5, 1516.5)">
    <path d="M-5.2 2.55 L-4.7 3.3 -4.15 3.85 -3.25 4.6 Q-1.1 5.95 1.0 5.25 2.15 4.9 3.15 4.15 4.35 3.25 4.9 2.0 L5.2 1.0 5.2 -0.2 5.1 -0.95 4.55 -2.4 3.8 -3.6 2.9 -4.45 2.55 -4.65 1.85 -5.0 1.3 -5.15 -2.65 -4.8 -3.0 -4.65 -4.3 -3.65 -5.2 -2.45 -5.7 -1.25 -5.85 -0.2 -5.55 1.7 -5.3 2.3 -5.2 2.55 M4.2 6.5 Q2.05 7.85 -0.15 7.85 -2.5 7.85 -5.15 5.9 -7.8 3.95 -8.0 0.8 -8.2 -2.4 -7.3 -3.8 -6.45 -5.2 -5.05 -6.25 -3.7 -7.35 -1.8 -7.65 L-0.25 -7.85 Q2.25 -7.9 4.2 -6.55 L4.7 -6.2 5.1 -5.75 5.95 -4.7 6.1 -4.55 6.55 -3.85 7.0 -2.95 7.15 -2.6 7.4 -1.6 7.5 -0.85 7.6 0.35 7.5 1.7 7.15 3.05 6.65 4.05 5.7 5.25 4.7 6.15 4.2 6.5" fill="#000000" fill-rule="evenodd" stroke="none"/>
    <path d="M12.5 -13.5 L15.2 -13.35 16.1 -13.2 17.65 -12.9 18.05 -12.8 19.15 -12.5 19.2 -12.5 19.3 -12.45 19.35 -12.45 19.45 -12.4 19.45 -12.35 19.5 -12.3 19.5 -12.25 19.55 -12.25 19.55 -12.2 19.6 -12.2 19.7 -11.7 19.6 -11.3 19.55 -11.25 18.55 -10.95 18.15 -10.9 Q16.15 -10.65 14.15 -9.7 L12.3 -8.65 9.1 -6.05 7.1 -3.75 7.1 -3.7 7.1 -3.65 7.05 -3.65 6.75 -3.3 6.5 -2.8 6.4 -2.75 6.4 -2.65 5.15 -5.0 6.3 -6.4 6.95 -7.05 8.0 -8.0 9.1 -8.95 10.15 -9.75 11.25 -10.5 12.45 -11.05 13.3 -11.5 11.05 -11.45 10.35 -11.4 9.15 -11.3 8.0 -11.1 6.85 -10.9 5.95 -10.6 4.95 -10.35 2.25 -9.65 1.35 -9.5 0.7 -9.55 -0.25 -10.15 -0.35 -10.25 -0.8 -10.7 -1.3 -11.6 -1.5 -12.25 -1.5 -12.35 -1.95 -11.95 -2.1 -11.7 -2.4 -11.2 -3.35 -9.5 -4.45 -7.95 Q-4.9 -7.25 -5.6 -6.65 L-5.75 -6.55 Q-6.5 -6.05 -7.4 -6.05 L-8.75 -6.25 -8.85 -6.25 -9.3 -6.4 -9.9 -6.7 -10.65 -7.2 -10.05 -4.85 -9.55 -3.85 Q-9.15 -2.9 -8.4 -2.15 L-7.8 -1.5 -7.7 -1.35 -7.7 1.4 -8.3 1.1 -9.35 0.1 -10.3 -1.2 -10.85 -2.1 -10.9 -2.2 -11.2 -2.75 -11.35 -3.0 -11.75 -4.2 Q-12.5 -6.25 -12.55 -8.45 L-12.55 -8.5 -12.15 -9.45 -12.0 -9.5 -11.7 -9.55 -11.5 -9.55 -10.5 -9.1 -10.2 -8.95 -10.0 -8.8 -9.6 -8.6 -9.15 -8.4 -8.85 -8.35 -7.25 -8.45 Q-6.7 -8.6 -6.3 -9.1 L-6.1 -9.3 -5.95 -9.5 -5.55 -10.2 -4.7 -11.55 -3.8 -12.9 -2.95 -14.1 -2.7 -14.45 -1.55 -15.75 -0.35 -16.85 -0.3 -16.85 0.7 -16.8 0.7 -16.75 0.75 -16.7 0.75 -16.65 0.7 -16.35 0.5 -15.3 Q0.25 -14.35 0.55 -13.4 0.75 -12.75 1.25 -12.25 L1.5 -12.05 1.85 -11.9 4.2 -12.5 4.25 -12.5 4.4 -12.55 5.65 -12.8 7.2 -13.1 8.6 -13.3 10.0 -13.45 11.6 -13.5 12.5 -13.5" fill="#000000" fill-rule="evenodd" stroke="none"/>
    <path d="M-1.05 6.4 L-1.05 6.4" fill="#00ff00" fill-rule="evenodd" stroke="none"/>
  </g>
</svg>
